<svg width="21" height="27" viewBox="0 0 21 27" fill="none" xmlns="http://www.w3.org/2000/svg">
<path d="M19.2293 8.70586H15.7331V5.80391C15.7331 4.26461 15.1806 2.78837 14.197 1.69992C13.2135 0.611481 11.8796 0 10.4887 0C9.09783 0 7.76391 0.611481 6.7804 1.69992C5.79689 2.78837 5.24436 4.26461 5.24436 5.80391V8.70586H1.74812C1.28449 8.70586 0.839849 8.90969 0.512013 9.2725C0.184176 9.63532 0 10.1274 0 10.6405V24.1829C0 24.696 0.184176 25.1881 0.512013 25.5509C0.839849 25.9137 1.28449 26.1176 1.74812 26.1176H19.2293C19.693 26.1176 20.1376 25.9137 20.4654 25.5509C20.7933 25.1881 20.9774 24.696 20.9774 24.1829V10.6405C20.9774 10.1274 20.7933 9.63532 20.4654 9.2725C20.1376 8.90969 19.693 8.70586 19.2293 8.70586ZM6.99248 5.80391C6.99248 4.77771 7.36083 3.79355 8.01651 3.06792C8.67218 2.34229 9.56146 1.93464 10.4887 1.93464C11.416 1.93464 12.3053 2.34229 12.9609 3.06792C13.6166 3.79355 13.985 4.77771 13.985 5.80391V8.70586H6.99248V5.80391ZM19.2293 24.1829H1.74812V10.6405H19.2293V24.1829ZM11.7998 17.4117C11.7998 17.6987 11.7229 17.9792 11.5789 18.2178C11.4348 18.4564 11.23 18.6424 10.9905 18.7522C10.7509 18.8621 10.4873 18.8908 10.2329 18.8348C9.97861 18.7788 9.745 18.6406 9.56164 18.4377C9.37828 18.2348 9.25341 17.9763 9.20282 17.6948C9.15224 17.4133 9.1782 17.1216 9.27743 16.8565C9.37667 16.5913 9.54471 16.3647 9.76032 16.2053C9.97593 16.0458 10.2294 15.9607 10.4887 15.9607C10.8364 15.9607 11.1699 16.1136 11.4158 16.3857C11.6617 16.6578 11.7998 17.0269 11.7998 17.4117Z" fill="white"/>
</svg>
