<svg width="23" height="25" viewBox="0 0 23 25" fill="none" xmlns="http://www.w3.org/2000/svg">
<path d="M22.6185 22.7353C20.9545 19.5516 18.3903 17.2687 15.3977 16.1865C16.878 15.2113 18.028 13.7253 18.6713 11.9567C19.3146 10.1881 19.4154 8.23468 18.9585 6.39648C18.5015 4.55828 17.5119 2.93691 16.1417 1.78137C14.7715 0.625826 13.0964 0 11.3737 0C9.65105 0 7.97598 0.625826 6.60578 1.78137C5.23557 2.93691 4.246 4.55828 3.78903 6.39648C3.33205 8.23468 3.43294 10.1881 4.0762 11.9567C4.71947 13.7253 5.86954 15.2113 7.34979 16.1865C4.35723 17.2675 1.79296 19.5504 0.128964 22.7353C0.0679421 22.8454 0.0274669 22.9679 0.00992625 23.0956C-0.00761443 23.2233 -0.00186532 23.3536 0.0268344 23.4788C0.055534 23.604 0.106603 23.7216 0.177028 23.8246C0.247453 23.9276 0.335807 24.014 0.436878 24.0786C0.53795 24.1432 0.64969 24.1848 0.765506 24.2008C0.881323 24.2168 0.99887 24.207 1.11121 24.172C1.22355 24.137 1.32842 24.0774 1.41961 23.9967C1.5108 23.9161 1.58648 23.8161 1.64218 23.7026C3.70059 19.7656 7.33887 17.415 11.3737 17.415C15.4086 17.415 19.0469 19.7656 21.1053 23.7026C21.161 23.8161 21.2367 23.9161 21.3279 23.9967C21.4191 24.0774 21.5239 24.137 21.6363 24.172C21.7486 24.207 21.8662 24.2168 21.982 24.2008C22.0978 24.1848 22.2095 24.1432 22.3106 24.0786C22.4117 24.014 22.5 23.9276 22.5705 23.8246C22.6409 23.7216 22.692 23.604 22.7207 23.4788C22.7494 23.3536 22.7551 23.2233 22.7376 23.0956C22.72 22.9679 22.6796 22.8454 22.6185 22.7353ZM5.25533 8.70915C5.25533 7.36993 5.61416 6.06078 6.28647 4.94726C6.95877 3.83374 7.91433 2.96585 9.03233 2.45335C10.1503 1.94086 11.3805 1.80676 12.5674 2.06803C13.7542 2.3293 14.8444 2.9742 15.7001 3.92117C16.5558 4.86814 17.1385 6.07466 17.3746 7.38815C17.6107 8.70164 17.4895 10.0631 17.0264 11.3004C16.5633 12.5377 15.7791 13.5952 14.773 14.3392C13.7668 15.0832 12.5839 15.4804 11.3737 15.4804C9.75157 15.4785 8.19634 14.7644 7.04929 13.495C5.90224 12.2256 5.25706 10.5044 5.25533 8.70915Z" fill="white"/>
</svg>
